<svg width="16" height="16" viewBox="0 0 16 16" xmlns="http://www.w3.org/2000/svg">
    <defs>
        <clipPath id="svg-hearts">
            <path d="M0 0h16v16H0z"/>
        </clipPath>
    </defs>
    <g clip-path="url(#svg-hearts)">
        <path d="M8.084 2.225a2.742 2.742 0 0 1 .863 1.3 2.576 2.576 0 0 1 0 1.4 2.736 2.736 0 0 1-.669 1.206L5.197 9.268a.936.936 0 0 1-1.338 0L.777 6.134a2.736 2.736 0 0 1-.669-1.206 2.467 2.467 0 0 1 .018-1.4 2.625 2.625 0 0 1 .845-1.303 2.288 2.288 0 0 1 1.144-.528 2.7 2.7 0 0 1 1.294.106 2.794 2.794 0 0 1 1.118.686 2.8 2.8 0 0 1 1.119-.686 2.7 2.7 0 0 1 1.294-.106 2.288 2.288 0 0 1 1.144.528m-.4 3.31a1.891 1.891 0 0 0 .449-.819 1.719 1.719 0 0 0-.018-.955 1.739 1.739 0 0 0-.581-.88 1.627 1.627 0 0 0-1.202-.374 1.792 1.792 0 0 0-1.189.563l-.616.616-.612-.615a1.792 1.792 0 0 0-1.192-.564 1.627 1.627 0 0 0-1.206.37 1.739 1.739 0 0 0-.581.88 1.719 1.719 0 0 0-.009.96 1.891 1.891 0 0 0 .449.819l3.1 3.134c.035.047.07.047.105 0Z"/>
        <path d="M14.721 5.18A3.429 3.429 0 0 1 15.8 6.809a3.223 3.223 0 0 1 0 1.75 3.421 3.421 0 0 1-.837 1.508l-3.852 3.918a1.17 1.17 0 0 1-1.673 0l-3.852-3.918a3.421 3.421 0 0 1-.837-1.508 3.085 3.085 0 0 1 .022-1.75A3.281 3.281 0 0 1 5.827 5.18a2.861 2.861 0 0 1 1.431-.66 3.379 3.379 0 0 1 1.618.132 3.5 3.5 0 0 1 1.4.859 3.5 3.5 0 0 1 1.4-.859 3.379 3.379 0 0 1 1.618-.132 2.861 2.861 0 0 1 1.431.66"/>
    </g>
</svg>